<svg xmlns="http://www.w3.org/2000/svg" viewBox="0 0 24 24">
  <path fill="#F8F9FA" d="M12 8.5A3.5 3.5 0 1 0 12 15.5 3.5 3.5 0 0 0 12 8.5zm9.32 2.37l-1.6-.92a7.96 7.96 0 0 0-.5-1.2l.77-1.73a.75.75 0 0 0-.34-.96l-1.73-.99a.75.75 0 0 0-.98.23l-1 1.44c-.39-.17-.79-.31-1.2-.41l-.34-1.78A.75.75 0 0 0 13.36 4h-2.72a.75.75 0 0 0-.74.62l-.34 1.78c-.41.1-.81.24-1.2.41l-1-1.44a.75.75 0 0 0-.98-.23l-1.73.99a.75.75 0 0 0-.34.96l.77 1.73c-.2.39-.37.8-.5 1.2l-1.6.92A.75.75 0 0 0 2.5 12v2a.75.75 0 0 0 .38.65l1.6.92c.13.41.3.81.5 1.2l-.77 1.73a.75.75 0 0 0 .34.96l1.73.99c.35.2.79.1.98-.23l1-1.44c.39.17.79.31 1.2.41l.34 1.78a.75.75 0 0 0 .74.62h2.72a.75.75 0 0 0 .74-.62l.34-1.78c.41-.1.81-.24 1.2-.41l1 1.44c.19.33.63.43.98.23l1.73-.99a.75.75 0 0 0 .34-.96l-.77-1.73c.2-.39.37-.8.5-1.2l1.6-.92a.75.75 0 0 0 .38-.65v-2a.75.75 0 0 0-.38-.65z"/>
</svg>
