<?xml version="1.0" encoding="UTF-8"?>
<svg width="1024" height="1024" viewBox="0 0 1024 1024" xmlns="http://www.w3.org/2000/svg" role="img" aria-labelledby="title desc">
    <title>Hualapai Valley Observatory Splash Artwork</title>
    <desc>Stylised observatory scene with telescope, stars, and logotype.</desc>
    <g fill="none" fill-rule="evenodd">
        <rect fill="none" x="0" y="0" width="1024" height="1024" />
        <g fill="#F8F9FA">
            <!-- Stars -->
            <circle cx="178" cy="178" r="8" />
            <circle cx="276" cy="120" r="6" />
            <circle cx="380" cy="202" r="7" />
            <circle cx="480" cy="92" r="9" />
            <circle cx="548" cy="168" r="6" />
            <circle cx="644" cy="118" r="7" />
            <circle cx="720" cy="188" r="6" />
            <circle cx="824" cy="140" r="8" />
            <circle cx="900" cy="208" r="5" />

            <!-- Spiral galaxy -->
            <path d="M820 248c48 0 94 28 94 74 0 80-130 130-220 90 48-16 102-52 102-102 0-32-24-52-60-64 22-12 50-18 84-18z" opacity=".8" />
            <path d="M704 258c-48 0-94 28-94 74 0 78 128 128 218 92-46-16-100-54-100-102 0-33 22-54 56-66-20-10-44-14-80-14z" opacity=".6" />

            <!-- Telescope -->
            <path d="M356 458l228-132c14-8 20-26 12-40l-20-36c-8-14-26-20-40-12L308 370l48 88z" />
            <rect x="300" y="420" width="112" height="32" rx="16" transform="rotate(-28 356 436)" />
            <path d="M290 468l-92 160c-10 18-4 40 14 50 18 10 40 4 50-14l92-160-64-36z" />
            <path d="M384 528l-24 42 158 90 24-42-158-90z" />
            <circle cx="416" cy="436" r="32" />

            <!-- Observatory building -->
            <path d="M476 524l-208 120v168h392V644L476 524z" />
            <path d="M476 524l184 120 156-90-182-104z" />
            <rect x="516" y="604" width="96" height="160" fill="#10131A" opacity=".6" />

            <!-- Ground shadow -->
            <ellipse cx="512" cy="812" rx="300" ry="40" opacity=".25" />

            <!-- Typography -->
            <g transform="translate(128 852)">
                <path d="M0 0h54l14 48 14-48h54v132H104V78l-22 54h-36L24 78v54H0V0zm170 0h60l60 132h-56l-8-20h-52l-8 20h-56l60-132zm36 80h20l-10-28-10 28zm138-80h54l44 72V0h52v132h-54l-44-70v70h-52V0zm212 0h128v40h-74v16h70v40h-70v16h74v40H556V0z" />
            </g>
            <g transform="translate(220 944)">
                <path d="M0 0h48v84H0V0zm94 0h48v84H94V0zm94 0h48v84h-48V0zm94 0h48v84h-48V0zm94 0h48v84h-48V0zm94 0h48v84h-48V0" />
            </g>
        </g>
    </g>
</svg>